<?xml version="1.0" encoding="UTF-8"?>
<svg id="Layer_2" data-name="Layer 2" xmlns="http://www.w3.org/2000/svg" xmlns:xlink="http://www.w3.org/1999/xlink" viewBox="0 0 75 75">
  <defs>
    <linearGradient id="linear-gradient" x1="-91.98" y1="191.17" x2="-91.98" y2="150.74" gradientTransform="translate(229.12 389.54) scale(2.08 -2.08)" gradientUnits="userSpaceOnUse">
      <stop offset="0" stop-color="#6d7479"/>
      <stop offset="1" stop-color="#323538"/>
    </linearGradient>
  </defs>
  <g id="Layer_1-2" data-name="Layer 1">
    <path d="m75,64.58c0,5.75-4.66,10.42-10.42,10.42H10.42c-5.75,0-10.42-4.66-10.42-10.42V10.42C0,4.66,4.66,0,10.42,0h54.17c5.75,0,10.42,4.66,10.42,10.42v54.17Z" style="fill: url(#linear-gradient); stroke-width: 0px;"/>
    <path d="m20.56,26.75c.83-.95,2.15-1.59,3.31-1.75.17,1.27-.33,2.54-.99,3.34-.83.95-1.99,1.59-3.31,1.59-.33-1.11.17-2.23.99-3.18Zm7.12,16.04c-.99,1.27-2.31,3.02-3.81,3.02s-1.82-.96-3.64-.8c-1.99,0-2.31.95-3.8.8-1.66,0-2.81-1.43-3.64-2.86-2.48-3.65-2.81-8.11-1.16-10.49,1.16-1.59,2.81-2.54,4.47-2.54s2.81.95,4.14.95,2.15-.95,4.14-.95c1.49,0,2.98.79,4.14,2.07-3.64,1.9-2.98,6.83.66,8.26-.66,1.11-.99,1.59-1.49,2.54Zm12.99-17.79v3.83h4.57v2.42h-4.57v8.91c0,2,.53,3.17,2.47,3.17.88,0,1.41,0,1.76-.17l.18,2.34c-.53.16-1.59.33-2.82.33-1.41,0-2.64-.5-3.52-1.34-.88-1-1.23-2.33-1.23-4.33v-8.91h-2.64v-2.42h2.64v-3l3.17-.83Zm10.59,4.17l3.52,9.33c.53,1.5,1.06,2.84,1.41,4.33h.17c.35-1.33.88-2.66,1.41-4.33l3.35-9.33h3.34l-6.86,16.67h-2.99l-6.69-16.67h3.34Z" style="fill: #fff; stroke-width: 0px;"/>
  </g>
</svg>