<?xml version="1.0" encoding="UTF-8"?>
<svg id="Layer_2" data-name="Layer 2" xmlns="http://www.w3.org/2000/svg" xmlns:xlink="http://www.w3.org/1999/xlink" viewBox="0 0 75 75">
  <defs>
    <radialGradient id="radial-gradient" cx="-112.18" cy="206.71" fx="-112.18" fy="206.71" r="83.43" gradientTransform="translate(229.12 389.54) scale(2.08 -2.08)" gradientUnits="userSpaceOnUse">
      <stop offset="0" stop-color="#23d9d6"/>
      <stop offset=".16" stop-color="#22c7da"/>
      <stop offset=".48" stop-color="#1e97e6"/>
      <stop offset=".93" stop-color="#194bf8"/>
      <stop offset="1" stop-color="#183efb"/>
    </radialGradient>
  </defs>
  <g id="Layer_1-2" data-name="Layer 1">
    <path d="m16.07,75c-8.86,0-16.07-7.21-16.07-16.07V16.07C0,7.21,7.21,0,16.07,0h42.86c8.86,0,16.07,7.21,16.07,16.07v42.86c0,8.86-7.21,16.07-16.07,16.07H16.07Z" style="fill: url(#radial-gradient); stroke-width: 0px;"/>
    <path d="m19.68,30.58c-5.51-2.69-7.44-3.03-11.71-2.75s-4.27,2.41-3.24,2.48c1.03.07,1.31.14,1.31.14l.21-.48-1.24-.55s5.37-1.38,12.05,1.86,8.4,7.44,6.54,9.5c-1.86,2.06-5.1,3.1-9.09,2.2-.07-2.83.07-4.89.07-4.89,0,0,3.72-.14,4.68.55s.14,1.1-.48,1.31c.9.55,1.58.76,2.2,0,.62-.76,1.31-3.99-6.26-3.79-.14-1.31.27-2.2-.83-3.51-1.1-1.31-1.1,3.58-1.1,3.58,0,0-2.82.41-5.16,2.06s4.82,5.65,4.82,5.65c0,0,.14,1.79,1.17,2,1.03.21.96-1.31.96-1.31,0,0,6.2,1.79,10.33-1.86,4.13-3.65.27-9.5-5.24-12.19Zm-7.16,11.91s-2.34-.96-3.65-2.14-.9-1.38-.27-1.51c.62-.14,3.03-.76,4.06-.76l-.14,4.41Z" style="fill: #fff; stroke-width: 0px;"/>
    <path d="m27.6,36.57s-.35,3.99-.21,6.47c.07,1.03,1.72,1.24,1.72.21s-.07-5.16-.21-5.99c-.14-.83-.9-1.51-1.31-.69Z" style="fill: #fff; stroke-width: 0px;"/>
    <path d="m36.96,36.09s-3.79-.83-6.33.83c-1.24.83-.9,2.34-.21,2.41.69.07,4.2.21,5.03.76s1.03.96.14,1.51-2.89.83-3.72.55c-.83-.27-1.1-1.72.41-.96,1.51.76,4.27-.14,2.41-.76-1.86-.62-3.37-.48-4.34.21-.96.69.35,2.14,1.45,2.62s3.17.62,4.41-.14c1.24-.76,1.86-3.65-.14-4.13s-3.24-.41-4.13-.55c-.9-.14-.48-.48.96-.62s2.48-.21,3.72-.41c1.24-.21,1.3-1.1.34-1.31Z" style="fill: #fff; stroke-width: 0px;"/>
    <path d="m42.06,37.12c.14.62.69,2.96.69,3.93-.69-1.03-1.79-3.1-2.75-4.06-.96-.96-1.24-.14-1.24-.14,0,0-.96,3.51-.69,5.78.27,2.27,1.45.69,1.51,0,.07-.69.21-2.96.21-3.58.62,1.38,1.58,2.96,2.34,3.72s1.51.27,1.79-.41c.27-.69,1.17-4.41-.96-6.89-2.13-2.48-1.04,1.03-.9,1.65Z" style="fill: #fff; stroke-width: 0px;"/>
    <path d="m49.42,41.32c-.76.07-2.96.41-2.96.41l.48-1.45s1.45.07,2.62-.07.35-1.45-.07-1.45h-1.93l.35-.96s2.55-.07,3.37-.21c.83-.14-.48-1.51-1.45-1.58s-3.03.21-4.41.48.9,1.31.9,1.31c0,0-.21.69-.48,1.17-.83.14-.76.62-.48,1.24-.55,1.45-.83,3.24.76,3.79,1.58.55,3.44-.9,4.2-1.51.75-.62-.14-1.24-.9-1.17Z" style="fill: #fff; stroke-width: 0px;"/>
    <path d="m55.28,37.26c-1.03,1.03-2.82,3.72-2.82,3.72.21-1.79.69-2.27,1.79-4.06.94-1.53-.55-.96-.55-.96,0,0-3.51,2.96-2,6.33-1.03,2.55-2.69,6.2-.27,8.12.62.41.41-.83.62-1.51s.9-4.2,1.58-5.16c1.65-.14,4.61-.76,5.1-5.23.2-2.89-2.41-2.27-3.45-1.24Zm2.13,2.27c-.69,1.86-3.03,2.14-3.03,2.14,0,0,1.51-2.48,2.27-3.17.76-.69,1.45-.82.76,1.03Z" style="fill: #fff; stroke-width: 0px;"/>
    <path d="m31.8,33.27c1.38-1.38,2-3.93-.41-3.79,0,0-.9-1.17-2.82-.62-1.93.55-4.34,3.1-2.62,4.75,0,.76.21,2.2,1.24.9,1.1.48,3.24.14,4.61-1.24Zm-5.23-.76c-.21-1.03.35-2,2.14-2.34,0,0-1.86,1.51-2.14,2.34Zm4.13-1.72c1.93-.76,1.31,1.1.27,1.86s-2.06.96-3.3.62c0,0,1.1-1.72,3.03-2.48Z" style="fill: #fff; stroke-width: 0px;"/>
    <path d="m70.6,38.09h-4.14c-.09-1.37-.25-2.83-.55-4.21-.02-.08-.08-.14-.16-.14-.45-.04-.54-.01-1.09,0-.15,0-.26.15-.22.29.17.63.34,2.25.42,4.05h-3.94c-.12,0-.22.1-.23.22l-.1,1.04c0,.17.14.3.3.29h4.02c.02,1.49-.02,2.95-.17,3.98-.01.1.07.19.17.2.63.04,1.11.05,1.35.05.1,0,.17-.07.18-.17.04-.5.13-2.08.09-4.05h4.08c.13.01.23-.09.23-.22v-1.13c0-.12-.1-.22-.23-.22Z" style="fill: #fff; stroke-width: 0px;"/>
    <path d="m38.52,12.5c-1.58,0-3.12.17-4.63.43h0c-4.01.67-7.72,2.17-10.97,4.35-3.11,2.08-5.82,4.74-7.9,7.86.73.16,1.43.35,2.12.57,1.6-2.26,3.56-4.23,5.78-5.89,3.18-2.38,6.91-4.04,10.97-4.77h0c1.51-.27,3.04-.46,4.63-.46,10.97,0,20.38,6.79,24.26,16.39h2.22c-3.99-10.77-14.34-18.47-26.48-18.47Z" style="fill: #fff; stroke-width: 0px;"/>
  </g>
</svg>