<?xml version="1.0" encoding="UTF-8"?>
<svg id="Layer_2" data-name="Layer 2" xmlns="http://www.w3.org/2000/svg" viewBox="0 0 100 44">
  <g id="Layer_1-2" data-name="Layer 1">
    <path d="m0,0v44h10v-18h6v18h10V0h-10v16h-6V0H0Zm30,0v44h16.75c6.31,0,11.51-4.68,12.36-10.76,3.84,6.44,10.85,10.76,18.89,10.76,12.15,0,22-9.85,22-22S90.15,0,78,0c-8.04,0-15.05,4.32-18.89,10.76-.85-6.08-6.05-10.76-12.36-10.76h-16.75Zm10,10h6c2.21,0,4,1.79,4,4s-1.79,4-4,4h-6v-8Zm38,0c6.63,0,12,5.37,12,12s-5.37,12-12,12-12-5.37-12-12,5.37-12,12-12Zm0,4c-4.42,0-8,3.58-8,8s3.58,8,8,8,8-3.58,8-8-3.58-8-8-8Zm-22,5.5c-.23,1.01-.27,3.99,0,5-.76-1.16-1.94-2-3.94-2.5,2-.5,3.27-1.68,3.94-2.5Zm-16,8h6c2.21,0,4,1.79,4,4s-1.79,4-4,4h-6v-8Z" style="fill: #941de8; fill-rule: evenodd; stroke-width: 0px;"/>
  </g>
</svg>