<?xml version="1.0" encoding="UTF-8"?>
<svg id="Layer_2" data-name="Layer 2" xmlns="http://www.w3.org/2000/svg" xmlns:xlink="http://www.w3.org/1999/xlink" viewBox="0 0 75 75">
  <defs>
    <linearGradient id="linear-gradient" x1="-101.36" y1="304.84" x2="-88.1" y2="380.05" gradientTransform="translate(229.12 -708.37) scale(2.08)" gradientUnits="userSpaceOnUse">
      <stop offset="0" stop-color="#6d6d6d"/>
      <stop offset=".44" stop-color="#626262"/>
      <stop offset="1" stop-color="#454545"/>
    </linearGradient>
  </defs>
  <g id="Layer_1-2" data-name="Layer 1">
    <path d="m75,64.58c0,5.75-4.66,10.42-10.42,10.42H10.42c-5.75,0-10.42-4.66-10.42-10.42V10.42C0,4.66,4.66,0,10.42,0h54.17c5.75,0,10.42,4.66,10.42,10.42v54.17Z" style="fill: url(#linear-gradient); stroke-width: 0px;"/>
    <path d="m51.04,10.42h-8.33c-1.72,0-3.12,1.4-3.12,3.12v10.06l-4.38-11.2c-.47-1.21-1.61-1.99-2.91-1.99h-8.33c-1.04,0-2,.51-2.59,1.37-.33.48-.46,1.06-.52,1.46l-.02.15v48.06c0,.97.44,1.87,1.2,2.46.55.43,1.23.66,1.92.66.26,0,.52-.03.77-.1.02,0,3.86-.95,7.56-.95,1.72,0,3.12-1.4,3.12-3.12v-9.81l4.39,10.97c.48,1.19,1.62,1.96,2.9,1.96,3.69,0,7.54.94,7.58.95.25.06.5.09.75.09.9,0,1.75-.39,2.35-1.06.65-.74.78-1.81.78-2.06V13.54c0-1.72-1.4-3.12-3.12-3.12h0Z" style="isolation: isolate; opacity: .05; stroke-width: 0px;"/>
    <path d="m34.37,45.19l6.4,16c.32.8,1.08,1.31,1.94,1.31,3.86,0,7.81.97,7.85.99.69.17,1.55-.07,2.05-.65.41-.47.52-1.25.52-1.38V13.54c0-1.15-.94-2.08-2.08-2.08h-8.33c-1.15,0-2.08.94-2.08,2.08v15.58l-6.39-16.34c-.31-.8-1.08-1.33-1.94-1.33h-8.33c-.69,0-1.34.34-1.72.91-.17.25-.29.61-.35,1.02v48.06c-.01.65.28,1.25.79,1.64.5.39,1.18.53,1.79.38.03-.01,3.99-.98,7.82-.98,1.15,0,2.08-.94,2.08-2.08v-15.23Z" style="isolation: isolate; opacity: .05; stroke-width: 0px;"/>
    <path d="m23.96,62.5c-.23,0-.46-.08-.64-.22-.25-.2-.4-.5-.4-.82V13.54c0-.58.47-1.04,1.04-1.04h8.33c.57,0,1.04.47,1.04,1.04v46.87c0,.58-.47,1.04-1.04,1.04-3.99,0-8.04,1-8.08,1.01-.08.02-.17.03-.25.03Z" style="fill: #b71c1c; stroke-width: 0px;"/>
    <path d="m51.04,62.5c-.09,0-.17-.01-.25-.03-3.99-1-8.04-1.01-8.08-1.01-.57,0-1.04-.47-1.04-1.04V13.54c0-.58.47-1.04,1.04-1.04h8.33c.57,0,1.04.47,1.04,1.04v47.92c0,.32-.15.62-.4.82-.19.14-.41.22-.64.22Z" style="fill: #b71c1c; stroke-width: 0px;"/>
    <path d="m41.67,28.92v31.69l.08.21c.15.4.54.65.96.65,3.98,0,8.04,1,8.08,1.02.08.02.17.02.25.02.29,0,.58-.13.79-.35.17-.19.21-.44.21-.67.02-.02.04-.02.04-.02v-5.92l-10.42-26.63Z" style="isolation: isolate; opacity: .05; stroke-width: 0px;"/>
    <path d="m33.33,39.79V13.33l-.06-.16c-.17-.4-.54-.67-.98-.67h-8.33c-.35,0-.67.17-.85.46-.12.17-.17.38-.17.56,0,0-.02,0-.02.02v5.81l10.42,26.04v-5.6Z" style="isolation: isolate; opacity: .05; stroke-width: 0px;"/>
    <path d="m52.08,58.4l-10.42-26.62v28.65h1.09c3.5,0,7.29.78,8.28,1.05h0s1.05.38,1.05.38v-3.45Z" style="isolation: isolate; opacity: .05; stroke-width: 0px;"/>
    <polygon points="33.33 13.71 22.92 13.64 22.92 16.55 33.33 42.59 33.33 13.71" style="isolation: isolate; opacity: .05; stroke-width: 0px;"/>
    <path d="m51.04,62.5c-.09,0-.17-.01-.25-.03-.04-.01-4.1-1.01-8.08-1.01-.43,0-.81-.26-.97-.65L22.99,13.93c-.13-.32-.09-.69.1-.97.19-.29.52-.46.86-.46h8.33c.43,0,.81.26.97.66l18.75,47.92c.14.36.07.78-.19,1.07-.2.23-.49.35-.78.35Z" style="fill: #e50914; stroke-width: 0px;"/>
  </g>
</svg>