<?xml version="1.0" encoding="UTF-8"?>
<svg id="Layer_2" data-name="Layer 2" xmlns="http://www.w3.org/2000/svg" xmlns:xlink="http://www.w3.org/1999/xlink" viewBox="0 0 75 75">
  <defs>
    <linearGradient id="linear-gradient" x1="-76.1" y1="184.86" x2="-106.33" y2="154.63" gradientTransform="translate(229.12 389.54) scale(2.08 -2.08)" gradientUnits="userSpaceOnUse">
      <stop offset="0" stop-color="#46cdef"/>
      <stop offset="1" stop-color="#012962"/>
    </linearGradient>
  </defs>
  <g id="Layer_1-2" data-name="Layer 1">
    <path d="m60.42,75H14.58c-8.05,0-14.58-6.53-14.58-14.58V14.58C0,6.53,6.53,0,14.58,0h45.83c8.05,0,14.58,6.53,14.58,14.58v45.83c0,8.05-6.53,14.58-14.58,14.58Z" style="fill: url(#linear-gradient); stroke-width: 0px;"/>
    <path d="m45.87,18.02c.32-.19.65-.4,1-.58.9-.46,1.9-.69,2.91-.64.73.04,1.4.24,1.91.78.49.5.67,1.11.72,1.78.01.14.01.28.01.44v6.64c0,.58-.08.65-.65.65h-1.56c-.1,0-.2,0-.31-.01-.15-.01-.28-.14-.31-.29-.03-.14-.03-.28-.03-.42v-5.94c.01-.24-.01-.47-.08-.7-.1-.4-.46-.68-.87-.7-.76-.05-1.51.1-2.2.42-.1.03-.17.13-.15.23v6.74c0,.13,0,.24-.03.37,0,.18-.14.31-.32.31h0c-.19.01-.38.01-.59.01h-1.36c-.47,0-.58-.12-.58-.59v-6.06c0-.22-.01-.45-.06-.67-.09-.44-.46-.74-.9-.77-.77-.05-1.55.1-2.24.44-.1.03-.17.14-.14.24v6.83c0,.47-.1.58-.58.58h-1.72c-.45,0-.56-.13-.56-.56v-8.9c0-.1.01-.2.04-.31.05-.15.2-.24.36-.24h1.6c.23,0,.37.14.45.36.06.18.1.35.17.54.13,0,.2-.09.29-.14.7-.44,1.45-.81,2.28-.96.64-.13,1.28-.13,1.92,0,.6.13,1.14.49,1.49,1,.03.04.05.06.08.09-.02.01,0,.01,0,.04Zm-18.94.49c.09-.03.17-.08.22-.15.23-.23.47-.45.73-.65.67-.51,1.5-.77,2.33-.7.33.01.45.12.47.44.03.44.01.88.01,1.32.01.18,0,.35-.03.52-.05.23-.14.32-.37.35-.18.01-.35,0-.53-.01-.86-.08-1.69.09-2.5.36-.18.06-.18.19-.18.33v6.15c0,.12,0,.22-.01.33-.01.17-.14.29-.31.29-.09.01-.19.01-.28.01h-1.67c-.09,0-.19,0-.28-.01-.17-.01-.29-.15-.31-.32-.01-.1-.01-.2-.01-.31v-8.72c0-.59.06-.65.65-.65h1.23c.33,0,.49.12.58.44.09.32.17.64.24.99Zm5,3.56v-4.55c.01-.31.13-.42.44-.44.67-.01,1.33-.01,2,0,.29,0,.38.09.41.38.01.12.01.22.01.33v8.54c0,.14-.01.28-.03.42-.01.17-.14.28-.31.29-.08.01-.14.01-.22.01h-1.78c-.06,0-.12,0-.18-.01-.18-.01-.33-.15-.35-.33-.01-.1-.01-.2-.01-.31.02-1.42.02-2.88.02-4.34Zm1.49-9.57c.2-.01.41.03.6.09.69.23,1.05.83.99,1.61-.05.67-.55,1.2-1.22,1.31-.28.05-.58.05-.86,0-.73-.14-1.27-.68-1.22-1.6.08-.91.68-1.41,1.71-1.41Zm-11.09,8.52c-.05-.67-.23-1.32-.5-1.92-.53-1.1-1.33-1.91-2.56-2.19-1.41-.31-2.68,0-3.83.86-.08.08-.17.14-.27.19-.03-.01-.05-.03-.05-.04-.04-.13-.06-.26-.1-.38-.1-.32-.23-.44-.58-.44-.38,0-.78.01-1.17,0-.29-.01-.56.03-.77.26,0,4.49,0,8.99.01,13.46.17.27.42.32.72.31.46-.01.92,0,1.38,0q.81,0,.81-.79v-3.65c0-.09-.04-.19.05-.27.64.5,1.42.81,2.23.88,1.13.12,2.15-.17,3.01-.94.63-.58,1.09-1.32,1.33-2.14.35-1.05.37-2.11.28-3.19Zm-3.06,2.65c-.09.4-.29.76-.59,1.03-.33.28-.74.45-1.18.45-.65.04-1.29-.1-1.87-.41-.14-.06-.23-.2-.22-.36v-2.32c0-.77.01-1.54,0-2.31-.01-.18.09-.33.26-.4.7-.33,1.44-.49,2.2-.33.54.08,1,.42,1.22.92.19.41.31.86.33,1.31.08.82.08,1.64-.15,2.42Zm37.84-.77c.96.18,1.95.19,2.91.04.56-.08,1.1-.24,1.6-.51.58-.33,1-.79,1.18-1.44.45-1.61-.24-3.24-1.92-3.84-.82-.27-1.69-.36-2.55-.24-2.03.23-3.34,1.35-3.95,3.28-.42,1.32-.37,2.66-.03,4,.45,1.7,1.58,2.72,3.28,3.07.97.22,1.96.18,2.94.03.51-.09,1.03-.22,1.51-.41.29-.12.45-.29.44-.63-.01-.31,0-.63,0-.95,0-.38-.15-.5-.52-.41-.37.09-.73.17-1.1.24-.79.17-1.61.17-2.41.03-1.09-.22-1.79-1.15-1.73-2.31.11.01.24.02.36.05Zm-.32-1.96c.04-.31.13-.6.24-.88.38-.94,1.19-1.26,2.01-1.2.23.01.46.06.68.15.33.14.55.45.59.81.04.22.03.45-.04.67-.15.46-.52.65-.97.74-.27.06-.55.09-.83.06-.5,0-1.01-.04-1.51-.12q-.19-.03-.17-.23Z" style="fill: #fff; stroke-width: 0px;"/>
    <path d="m17.34,44.1c.08-.27.16-.54.25-.81.63-2.13,1.26-4.25,1.9-6.38l.08-.25c.07-.25.3-.4.55-.4h2.09c.52,0,.63.15.45.65l-.82,2.19c-.92,2.39-1.84,4.8-2.76,7.19-.03.08-.07.16-.1.25-.1.29-.38.48-.69.45-.6-.01-1.21-.01-1.81,0-.43.01-.67-.18-.82-.56-.34-.91-.7-1.83-1.04-2.74-.82-2.16-1.66-4.32-2.49-6.49-.08-.16-.14-.36-.18-.54-.04-.27.05-.41.33-.41.78-.01,1.57,0,2.34,0,.33,0,.48.22.56.51.15.52.3,1.06.47,1.58.56,1.91,1.11,3.84,1.68,5.75-.01.01,0,.01.03.01Zm9.74-2.47v4.95c-.03.27-.15.4-.43.41-.74.01-1.47.01-2.21,0-.27,0-.4-.14-.43-.4-.01-.08-.01-.18-.01-.26v-9.52c.01-.43.12-.55.55-.55h1.98c.43,0,.55.12.55.55v4.81h0Zm-1.53-10.3c.27-.03.55.03.81.14.54.21.91.7.94,1.28.11,1.25-.73,1.88-1.84,1.86-.15,0-.3-.03-.45-.05-.85-.21-1.29-.87-1.21-1.81.07-.76.66-1.32,1.47-1.39.1-.01.2-.03.29-.01Zm37.51,9.5c.01-.16-.04-.48-.04-.49-.03-.26-.08-.52-.15-.77-.51-1.81-1.65-3.01-3.51-3.48-.87-.21-1.75-.23-2.63-.1-1.86.27-3.19,1.26-3.84,3.02-.63,1.68-.62,3.52.01,5.2.55,1.53,1.65,2.49,3.23,2.89.84.21,1.72.26,2.59.14,2.89-.34,4.09-2.53,4.28-4.43,0,0,.07-.57.07-.83v-1.15Zm-3.3,2.56c-.08.29-.21.55-.38.8-.3.43-.78.7-1.31.74-.26.03-.52.03-.78-.03-.58-.11-1.06-.49-1.29-1.03-.21-.43-.33-.89-.37-1.36-.07-.81-.08-1.62.11-2.42.07-.32.21-.63.37-.91.3-.49.82-.81,1.4-.85.26-.03.52-.03.78.03.55.11,1,.47,1.25.98.23.48.37,1.02.4,1.55.01.25.03.49.01.74.04.61-.03,1.2-.2,1.76Zm-20.81-11.96h-1.91c-.52,0-.62.1-.62.62v4.46c0,.1.04.19-.03.29-.12-.01-.19-.1-.29-.15-1.43-.84-2.93-.99-4.44-.29-1.06.49-1.72,1.39-2.15,2.45-.41,1.02-.51,2.09-.48,3.18,0,1.02.23,2.02.69,2.93.52,1,1.28,1.77,2.38,2.1,1.5.47,2.9.23,4.18-.71.1-.05.15-.15.27-.18.07.15.12.32.15.48.05.22.25.37.48.37h.33c.49,0,.98.01,1.46,0,.38,0,.49-.12.51-.52v-14.49c-.01-.43-.12-.52-.53-.52Zm-2.52,10.12v2.5c.03.16-.07.32-.22.38-.66.37-1.42.52-2.16.41-.63-.07-1.18-.45-1.47-1.02-.22-.44-.34-.91-.38-1.39-.11-.87-.04-1.75.16-2.59.07-.23.15-.45.27-.67.29-.54.84-.88,1.44-.92.73-.07,1.46.07,2.12.37.16.05.26.22.25.4-.03.85-.01,1.68-.01,2.52h0Zm10.82,1.09c.8-.05,1.59-.21,2.31-.59.73-.36,1.24-1.03,1.39-1.83.1-.49.1-1.02-.01-1.51-.29-1.24-1.07-2.01-2.25-2.41-.66-.21-1.36-.29-2.05-.26-2.31.05-4.07,1.22-4.79,3.54-.48,1.53-.41,3.08.05,4.61.48,1.57,1.58,2.52,3.15,2.94.67.16,1.37.23,2.06.21,1-.01,2.01-.21,2.96-.56.4-.15.49-.29.49-.71v-.99c-.01-.4-.18-.54-.58-.44-.3.08-.59.15-.89.22-.92.22-1.88.26-2.82.1-.94-.18-1.57-.71-1.81-1.65-.07-.27-.12-.55-.15-.84.07,0,.14,0,.19.03.91.16,1.84.23,2.76.16Zm-2.87-2.2c.1-.54.22-1.06.55-1.5.51-.67,1.21-.87,2.01-.78.07,0,.12.03.19.03.96.15,1.2.92,1.02,1.66-.14.55-.59.76-1.1.85-.27.05-.56.08-.85.07-.56-.01-1.11-.05-1.66-.14-.12-.01-.18-.07-.15-.19h0Z" style="fill: #fff; stroke-width: 0px;"/>
    <path d="m38.28,62.5c-.48-.01-.96-.01-1.44,0-.66-.04-1.32-.06-1.99-.11-1.76-.13-3.51-.4-5.21-.8-5.91-1.37-11.11-4.13-15.64-8.14-.42-.38-.82-.76-1.23-1.15-.1-.09-.18-.21-.23-.33-.07-.17-.04-.35.09-.48.12-.13.31-.18.48-.11.11.05.22.1.31.16,4.33,2.67,9.05,4.62,14,5.78,1.66.39,3.34.69,5.02.9,2.42.3,4.86.41,7.3.32,1.31-.04,2.61-.16,3.91-.32,3.04-.39,6.04-1.07,8.94-2.04,1.53-.5,3.02-1.09,4.48-1.76.22-.12.48-.16.72-.1.4.1.64.5.54.9-.01.05-.04.11-.06.16-.1.18-.23.34-.4.46-1.39,1.09-2.88,2.04-4.46,2.83-2.97,1.5-6.16,2.58-9.43,3.19-1.89.34-3.79.54-5.71.61Zm20.71-11.74c.8.02,1.58.07,2.35.28.22.06.42.13.62.23.28.11.46.38.49.66.05.34.06.69.04,1.04-.16,2.06-.8,4.05-1.86,5.82-.39.64-.85,1.22-1.4,1.72-.11.11-.24.19-.39.24-.23.06-.38-.06-.39-.29.01-.12.04-.24.09-.36.42-1.13.83-2.25,1.16-3.42.19-.64.32-1.29.41-1.95.03-.24.04-.48.01-.72-.01-.41-.28-.76-.68-.88-.38-.12-.76-.19-1.16-.22-1.11-.05-2.21,0-3.31.15l-1.46.18c-.16.01-.3,0-.39-.15-.09-.15-.05-.29.04-.43.1-.13.22-.25.36-.34.89-.64,1.89-1.03,2.95-1.28.82-.17,1.65-.25,2.49-.28Z" style="fill: #fff; stroke-width: 0px;"/>
  </g>
</svg>