<?xml version="1.0" encoding="utf-8"?>
<!-- Generator: Adobe Illustrator 24.3.0, SVG Export Plug-In . SVG Version: 6.00 Build 0)  -->
<svg version="1.1" id="TV_2" xmlns="http://www.w3.org/2000/svg" xmlns:xlink="http://www.w3.org/1999/xlink" x="0px" y="0px"
	 viewBox="0 0 1920 1080" style="enable-background:new 0 0 1920 1080;" xml:space="preserve">
<style type="text/css">
	.st0{fill:#009CEB;}
	.st1{opacity:0.5;fill:#009CEB;enable-background:new    ;}
</style>
<path class="st0" d="M527.9,451.4H417.1c-3.4,0-7.7,2.3-9.6,5.1l-23.8,35.4h135.2c5.4,0.1,10.6,2.8,11.2,9.1
	c0.8,7.9-7.7,15.1-15.5,15.1h-60.4c-3.4,0-7.7,2.3-9.6,5.1l-23.9,35.3h87c33.9,0,69-29.5,67.8-62C574.4,469,551.8,451.4,527.9,451.4
	"/>
<path class="st1" d="M347.2,491.9H195.8l23.9-35.4c1.9-2.8,6.2-5.1,9.6-5.1h151.5l-23.9,35.4C355,489.6,350.6,491.9,347.2,491.9"/>
<path class="st1" d="M259.5,608.5l9.7-92.3h45l-9.8,93.2l59.4-88.1c1.9-2.8,6.2-5.1,9.6-5.1h43.4l-67.5,100.1
	c-1.9,2.8-6.2,5.1-9.6,5.1h-68.7C264,621.3,258.8,615.6,259.5,608.5"/>
<path class="st1" d="M519.3,621.3H377.1l23.9-35.4c1.9-2.8,6.2-5.1,9.6-5.1h142.2l-23.9,35.3C527,619.1,522.7,621.3,519.3,621.3"/>
</svg>
