<?xml version="1.0" encoding="UTF-8"?>
<svg id="Layer_2" data-name="Layer 2" xmlns="http://www.w3.org/2000/svg" viewBox="0 0 379.73 170">
  <g id="TV_2" data-name="TV 2">
    <path d="m332.1,0h-110.8c-3.4,0-7.7,2.3-9.6,5.1l-23.8,35.4h135.2c5.4.1,10.6,2.8,11.2,9.1.8,7.9-7.7,15.1-15.5,15.1h-60.4c-3.4,0-7.7,2.3-9.6,5.1l-23.9,35.3h87c33.9,0,69-29.5,67.8-62-1.1-25.5-23.7-43.1-47.6-43.1" style="fill: #009ceb; stroke-width: 0px;"/>
    <path d="m151.4,40.5H0L23.9,5.1c1.9-2.8,6.2-5.1,9.6-5.1h151.5l-23.9,35.4c-1.9,2.8-6.3,5.1-9.7,5.1" style="fill: #009ceb; isolation: isolate; opacity: .5; stroke-width: 0px;"/>
    <path d="m63.7,157.1l9.7-92.3h45l-9.8,93.2,59.4-88.1c1.9-2.8,6.2-5.1,9.6-5.1h43.4l-67.5,100.1c-1.9,2.8-6.2,5.1-9.6,5.1h-68.7c-7-.1-12.2-5.8-11.5-12.9" style="fill: #009ceb; isolation: isolate; opacity: .5; stroke-width: 0px;"/>
    <path d="m323.5,169.9h-142.2l23.9-35.4c1.9-2.8,6.2-5.1,9.6-5.1h142.2l-23.9,35.3c-1.9,3-6.2,5.2-9.6,5.2" style="fill: #009ceb; isolation: isolate; opacity: .5; stroke-width: 0px;"/>
  </g>
</svg>