<?xml version="1.0" encoding="UTF-8"?>
<svg id="Layer_2" data-name="Layer 2" xmlns="http://www.w3.org/2000/svg" xmlns:xlink="http://www.w3.org/1999/xlink" viewBox="0 0 83.33 83.33">
  <defs>
    <linearGradient id="linear-gradient" x1="-97.79" y1="155.82" x2="-77.79" y2="190.46" gradientTransform="translate(224.61 402.39) scale(2.08 -2.08)" gradientUnits="userSpaceOnUse">
      <stop offset="0" stop-color="#c09"/>
      <stop offset=".15" stop-color="#d10089"/>
      <stop offset=".43" stop-color="#df0061"/>
      <stop offset=".82" stop-color="#f5001f"/>
      <stop offset="1" stop-color="red"/>
    </linearGradient>
  </defs>
  <g id="Layer_1-2" data-name="Layer 1">
    <path d="m83.33,41.67c0,23.02-18.65,41.67-41.67,41.67-10.52,0-20.15-3.92-27.48-10.37-2.06-1.79-.02-6.21-1.69-8.38-1.64-2.14-7-2.03-8.21-4.48C1.54,54.54,0,48.29,0,41.67s1.54-12.88,4.29-18.44c1.38-2.8,6.26-2.09,8.21-4.48,1.64-2.02.28-7.21,2.27-8.88C22.02,3.71,31.42,0,41.67,0c23.02,0,41.67,18.65,41.67,41.67Z" style="fill: url(#linear-gradient); stroke-width: 0px;"/>
    <path d="m58.33,34.58v14.16c0,.78-.43,1.49-1.12,1.85l-43.02,22.38c-4.08-3.56-7.46-7.92-9.9-12.85l35.46-18.44L4.29,23.23c2.54-5.17,6.12-9.71,10.48-13.35l42.47,22.87c.67.36,1.1,1.07,1.1,1.83Z" style="fill: #fff; stroke-width: 0px;"/>
    <path d="m58.23,30.92L16.52,8.46c-.31.23-.6.46-.9.69s-.58.48-.85.73l42.46,22.88c.69.35,1.1,1.06,1.1,1.83v14.15c0,.79-.44,1.5-1.13,1.85l-43.02,22.38c.27.27.54.5.83.73.29.25.58.5.9.73l42.25-21.98c1.4-.73,2.25-2.15,2.25-3.71v-14.15c0-1.54-.83-2.94-2.19-3.67ZM4.29,23.23c-.15.31-.29.63-.44.94s-.29.63-.44.96l31.81,16.54L3.42,58.21c.15.33.29.65.44.96s.29.62.44.94l35.46-18.44L4.29,23.23Z" style="isolation: isolate; opacity: .05; stroke-width: 0px;"/>
    <path d="m57.73,31.83L15.62,9.15c-.29.23-.58.48-.85.73l42.46,22.88c.69.35,1.1,1.06,1.1,1.83v14.15c0,.79-.44,1.5-1.13,1.85l-43.02,22.38c.27.27.54.5.83.73l42.67-22.19c1.04-.54,1.69-1.6,1.69-2.77v-14.15c0-1.17-.62-2.21-1.65-2.75ZM4.29,23.23c-.15.31-.29.63-.44.94l33.65,17.5L3.85,59.17c.15.31.29.62.44.94l35.46-18.44L4.29,23.23Z" style="isolation: isolate; opacity: .07; stroke-width: 0px;"/>
  </g>
</svg>