<svg width="40" height="20" viewBox="0 0 40 20" fill="none" xmlns="http://www.w3.org/2000/svg">
<g clip-path="url(#clip0_89_272)">
<path d="M40 1.71894C39.8915 0.838423 39.2327 0.136632 38.3937 0C34.7165 0 5.29948 0 1.62226 0C0.703304 0.149743 0 0.977125 0 1.97426C0 3.57727 0 16.3986 0 18.0009C0 19.105 0.860522 20 1.92278 20C5.53948 20 34.4765 20 38.0932 20C39.0713 20 39.879 19.2402 40 18.2569C40 14.9495 40 3.37232 40 1.71894Z" fill="#F6C700"/>
<path d="M4.82434 4.01892H7.9986V16.1398H4.82434V4.01892Z" fill="black"/>
<path d="M13.9965 9.60221C13.7238 7.75492 13.5722 6.72811 13.5423 6.52316C13.4094 5.5343 13.2828 4.6738 13.1617 3.93958C12.887 3.93958 11.5158 3.93958 9.04626 3.93958V16.0605H11.8268L11.8365 8.05716L13.0066 16.0605H14.9871L16.0967 7.87913L16.1071 16.0605H18.8786V3.93958H14.7318L13.9965 9.60221Z" fill="black"/>
<path d="M24.119 6.46105C24.1537 6.61563 24.1718 6.96618 24.1718 7.51408C24.1718 7.98402 24.1718 11.7435 24.1718 12.2134C24.1718 13.0201 24.119 13.5142 24.0139 13.6963C23.9082 13.8785 23.6271 13.9689 23.1715 13.9689C23.1715 13.1733 23.1715 6.80815 23.1715 6.01251C23.5172 6.01251 23.753 6.04909 23.8783 6.12085C24.0035 6.19331 24.0842 6.30648 24.119 6.46105ZM25.5527 15.937C25.9304 15.8548 26.2477 15.7099 26.505 15.5036C26.7617 15.2966 26.9419 15.0102 27.0449 14.6438C27.1485 14.2781 27.2097 13.5514 27.2097 12.4646C27.2097 12.0395 27.2097 8.63405 27.2097 8.20828C27.2097 7.06141 27.1645 6.29268 27.0943 5.9021C27.0233 5.51084 26.8473 5.15546 26.5656 4.83665C26.2831 4.51784 25.8713 4.28875 25.3301 4.14935C24.7882 4.00996 23.9047 3.93958 22.368 3.93958C22.2101 3.93958 21.4212 3.93958 20 3.93958V16.0605H23.8456C24.7318 16.0329 25.3009 15.9922 25.5527 15.937Z" fill="black"/>
<path d="M32.3311 14.1255C32.2727 14.2794 32.0167 14.3574 31.8233 14.3574C31.6341 14.3574 31.5082 14.2829 31.4442 14.1331C31.3802 13.9841 31.3489 13.6439 31.3489 13.1111C31.3489 12.791 31.3489 10.2281 31.3489 9.90789C31.3489 9.35584 31.3767 9.0115 31.433 8.87418C31.4887 8.73824 31.6111 8.66923 31.8003 8.66923C31.9937 8.66923 32.2532 8.74721 32.32 8.90385C32.3861 9.0605 32.4195 9.39518 32.4195 9.90789C32.4195 10.1149 32.4195 11.15 32.4195 13.0138C32.3993 13.6522 32.3701 14.0227 32.3311 14.1255ZM28.2908 15.9549H31.1485C31.2675 15.4919 31.3329 15.2345 31.3461 15.1827C31.6049 15.4932 31.8894 15.7265 32.2017 15.881C32.5127 16.0363 32.9781 16.1136 33.3384 16.1136C33.84 16.1136 34.2727 15.9832 34.6379 15.7216C35.0024 15.4608 35.2348 15.1517 35.3336 14.7963C35.4323 14.4402 35.4817 13.8992 35.4817 13.1719C35.4817 12.8317 35.4817 10.1115 35.4817 9.77126C35.4817 9.0398 35.465 8.56227 35.4323 8.338C35.3996 8.11374 35.3023 7.88532 35.1402 7.65139C34.9781 7.41746 34.7423 7.23598 34.4334 7.10625C34.1245 6.97652 33.76 6.91165 33.3398 6.91165C32.9746 6.91165 32.5071 6.98411 32.1955 7.12695C31.8845 7.26979 31.6021 7.48647 31.3489 7.77699C31.3489 7.51407 31.3489 6.2002 31.3489 3.83398H28.2908V15.9549Z" fill="black"/>
</g>
<defs>
<clipPath id="clip0_89_272">
<rect width="40" height="20" fill="white"/>
</clipPath>
</defs>
</svg>
