<svg width="263" height="107" viewBox="0 0 263 107" fill="none" xmlns="http://www.w3.org/2000/svg">
<path d="M13.9 48L2 13H4.7L16 46.45H14.65L26.3 13H28.75L40.3 46.45H39L50.4 13H52.9L41.05 48H38.35L27.15 15.65H27.8L16.6 48H13.9ZM73.8984 48V42.05L73.7984 41.15V31.35C73.7984 28.9167 73.1318 27.0667 71.7984 25.8C70.4984 24.5333 68.5818 23.9 66.0484 23.9C64.2484 23.9 62.5651 24.2167 60.9984 24.85C59.4651 25.45 58.1484 26.2333 57.0484 27.2L55.7984 25.4C57.0984 24.2333 58.6651 23.3333 60.4984 22.7C62.3318 22.0333 64.2484 21.7 66.2484 21.7C69.4818 21.7 71.9651 22.5167 73.6984 24.15C75.4318 25.7833 76.2984 28.2167 76.2984 31.45V48H73.8984ZM64.4984 48.2C62.5651 48.2 60.8818 47.9 59.4484 47.3C58.0484 46.6667 56.9651 45.7833 56.1984 44.65C55.4651 43.5167 55.0984 42.2167 55.0984 40.75C55.0984 39.4167 55.3984 38.2167 55.9984 37.15C56.6318 36.05 57.6651 35.1667 59.0984 34.5C60.5318 33.8 62.4484 33.45 64.8484 33.45H74.4484V35.4H64.8984C62.1984 35.4 60.2984 35.9 59.1984 36.9C58.1318 37.9 57.5984 39.15 57.5984 40.65C57.5984 42.3167 58.2318 43.65 59.4984 44.65C60.7651 45.65 62.5484 46.15 64.8484 46.15C67.0484 46.15 68.8984 45.65 70.3984 44.65C71.9318 43.65 73.0651 42.2 73.7984 40.3L74.4984 42C73.7984 43.9 72.5984 45.4167 70.8984 46.55C69.2318 47.65 67.0984 48.2 64.4984 48.2ZM94.1988 48.2C91.8988 48.2 90.1322 47.5667 88.8988 46.3C87.6988 45.0333 87.0988 43.3 87.0988 41.1V16.2H89.5988V40.85C89.5988 42.5167 90.0155 43.8 90.8488 44.7C91.6822 45.6 92.8822 46.05 94.4488 46.05C96.0822 46.05 97.4322 45.5667 98.4988 44.6L99.5488 46.35C98.8822 46.9833 98.0655 47.45 97.0988 47.75C96.1655 48.05 95.1988 48.2 94.1988 48.2ZM82.2988 24.05V21.9H97.8988V24.05H82.2988ZM115.943 48.2C113.41 48.2 111.143 47.6333 109.143 46.5C107.176 45.3667 105.61 43.8 104.443 41.8C103.31 39.8 102.743 37.5167 102.743 34.95C102.743 32.35 103.31 30.05 104.443 28.05C105.61 26.05 107.176 24.5 109.143 23.4C111.143 22.2667 113.41 21.7 115.943 21.7C118.043 21.7 119.943 22.1 121.643 22.9C123.376 23.7 124.776 24.9 125.843 26.5L123.993 27.85C123.06 26.5167 121.893 25.5333 120.493 24.9C119.093 24.2667 117.576 23.95 115.943 23.95C113.91 23.95 112.076 24.4167 110.443 25.35C108.843 26.25 107.576 27.5333 106.643 29.2C105.743 30.8333 105.293 32.75 105.293 34.95C105.293 37.15 105.743 39.0833 106.643 40.75C107.576 42.3833 108.843 43.6667 110.443 44.6C112.076 45.5 113.91 45.95 115.943 45.95C117.576 45.95 119.093 45.6333 120.493 45C121.893 44.3667 123.06 43.3833 123.993 42.05L125.843 43.4C124.776 45 123.376 46.2 121.643 47C119.943 47.8 118.043 48.2 115.943 48.2ZM145.638 21.7C147.771 21.7 149.621 22.1167 151.188 22.95C152.788 23.75 154.021 24.9833 154.888 26.65C155.788 28.2833 156.238 30.3167 156.238 32.75V48H153.738V32.95C153.738 30.0167 152.988 27.7833 151.488 26.25C150.021 24.7167 147.955 23.95 145.288 23.95C143.255 23.95 141.488 24.3667 139.988 25.2C138.488 26.0333 137.338 27.2 136.538 28.7C135.771 30.2 135.388 32 135.388 34.1V48H132.888V10.9H135.388V29.15L134.938 28.35C135.738 26.2833 137.055 24.6667 138.888 23.5C140.721 22.3 142.971 21.7 145.638 21.7Z" fill="#8145FF"/>
<path d="M94.15 94V59H111.25C115.65 59 118.95 59.8333 121.15 61.5C123.383 63.1667 124.5 65.3667 124.5 68.1C124.5 69.9333 124.05 71.5333 123.15 72.9C122.25 74.2333 121.017 75.2667 119.45 76C117.883 76.7333 116.083 77.1 114.05 77.1L115 75.05C117.2 75.05 119.15 75.4167 120.85 76.15C122.55 76.85 123.867 77.9 124.8 79.3C125.767 80.7 126.25 82.4167 126.25 84.45C126.25 87.45 125.067 89.8 122.7 91.5C120.333 93.1667 116.85 94 112.25 94H94.15ZM102.2 87.9H111.65C113.75 87.9 115.333 87.5667 116.4 86.9C117.5 86.2 118.05 85.1 118.05 83.6C118.05 82.1333 117.5 81.05 116.4 80.35C115.333 79.6167 113.75 79.25 111.65 79.25H101.6V73.35H110.25C112.217 73.35 113.717 73.0167 114.75 72.35C115.817 71.65 116.35 70.6 116.35 69.2C116.35 67.8333 115.817 66.8167 114.75 66.15C113.717 65.45 112.217 65.1 110.25 65.1H102.2V87.9ZM143.182 94.4C140.949 94.4 138.949 93.9667 137.182 93.1C135.449 92.2333 134.099 90.9167 133.132 89.15C132.166 87.35 131.682 85.0667 131.682 82.3V67.1H139.482V81.15C139.482 83.3833 139.949 85.0333 140.882 86.1C141.849 87.1333 143.199 87.65 144.932 87.65C146.132 87.65 147.199 87.4 148.132 86.9C149.066 86.3667 149.799 85.5667 150.332 84.5C150.866 83.4 151.132 82.0333 151.132 80.4V67.1H158.932V94H151.532V86.6L152.882 88.75C151.982 90.6167 150.649 92.0333 148.882 93C147.149 93.9333 145.249 94.4 143.182 94.4ZM177.709 94.4C175.175 94.4 172.892 93.8333 170.859 92.7C168.825 91.5333 167.209 89.9167 166.009 87.85C164.842 85.7833 164.259 83.35 164.259 80.55C164.259 77.7167 164.842 75.2667 166.009 73.2C167.209 71.1333 168.825 69.5333 170.859 68.4C172.892 67.2667 175.175 66.7 177.709 66.7C179.975 66.7 181.959 67.2 183.659 68.2C185.359 69.2 186.675 70.7167 187.609 72.75C188.542 74.7833 189.009 77.3833 189.009 80.55C189.009 83.6833 188.559 86.2833 187.659 88.35C186.759 90.3833 185.459 91.9 183.759 92.9C182.092 93.9 180.075 94.4 177.709 94.4ZM179.059 88C180.325 88 181.475 87.7 182.509 87.1C183.542 86.5 184.359 85.65 184.959 84.55C185.592 83.4167 185.909 82.0833 185.909 80.55C185.909 78.9833 185.592 77.65 184.959 76.55C184.359 75.45 183.542 74.6 182.509 74C181.475 73.4 180.325 73.1 179.059 73.1C177.759 73.1 176.592 73.4 175.559 74C174.525 74.6 173.692 75.45 173.059 76.55C172.459 77.65 172.159 78.9833 172.159 80.55C172.159 82.0833 172.459 83.4167 173.059 84.55C173.692 85.65 174.525 86.5 175.559 87.1C176.592 87.7 177.759 88 179.059 88ZM186.109 94V88.5L186.259 80.5L185.759 72.55V56.9H193.559V94H186.109ZM212.328 94.4C209.794 94.4 207.511 93.8333 205.478 92.7C203.444 91.5333 201.828 89.9167 200.628 87.85C199.461 85.7833 198.878 83.35 198.878 80.55C198.878 77.7167 199.461 75.2667 200.628 73.2C201.828 71.1333 203.444 69.5333 205.478 68.4C207.511 67.2667 209.794 66.7 212.328 66.7C214.594 66.7 216.578 67.2 218.278 68.2C219.978 69.2 221.294 70.7167 222.228 72.75C223.161 74.7833 223.628 77.3833 223.628 80.55C223.628 83.6833 223.178 86.2833 222.278 88.35C221.378 90.3833 220.078 91.9 218.378 92.9C216.711 93.9 214.694 94.4 212.328 94.4ZM213.678 88C214.944 88 216.094 87.7 217.128 87.1C218.161 86.5 218.978 85.65 219.578 84.55C220.211 83.4167 220.528 82.0833 220.528 80.55C220.528 78.9833 220.211 77.65 219.578 76.55C218.978 75.45 218.161 74.6 217.128 74C216.094 73.4 214.944 73.1 213.678 73.1C212.378 73.1 211.211 73.4 210.178 74C209.144 74.6 208.311 75.45 207.678 76.55C207.078 77.65 206.778 78.9833 206.778 80.55C206.778 82.0833 207.078 83.4167 207.678 84.55C208.311 85.65 209.144 86.5 210.178 87.1C211.211 87.7 212.378 88 213.678 88ZM220.728 94V88.5L220.878 80.5L220.378 72.55V56.9H228.178V94H220.728ZM238.797 104.1C237.397 104.1 236.014 103.883 234.647 103.45C233.28 103.017 232.164 102.417 231.297 101.65L234.147 96.1C234.747 96.6333 235.43 97.05 236.197 97.35C236.997 97.65 237.78 97.8 238.547 97.8C239.647 97.8 240.514 97.5333 241.147 97C241.814 96.5 242.414 95.65 242.947 94.45L244.347 91.15L244.947 90.3L254.597 67.1H262.097L249.947 95.65C249.08 97.8167 248.08 99.5167 246.947 100.75C245.847 101.983 244.614 102.85 243.247 103.35C241.914 103.85 240.43 104.1 238.797 104.1ZM243.397 95.05L231.397 67.1H239.447L248.747 89.6L243.397 95.05Z" fill="#8145FF"/>
<path d="M0 78C0 76.8954 0.89543 76 2 76H83V80H2C0.895429 80 0 79.1046 0 78Z" fill="#8145FF"/>
<path d="M169 30H260C261.105 30 262 30.8954 262 32C262 33.1046 261.105 34 260 34H169V30Z" fill="#8145FF"/>
</svg>
